<?xml version="1.0" encoding="UTF-8" standalone="no"?>
<!-- Created with Inkscape (http://www.inkscape.org/) -->

<svg
   width="59mm"
   height="59mm"
   viewBox="0 0 59 59"
   version="1.1"
   id="svg5"
   inkscape:version="1.1.2 (b8e25be833, 2022-02-05)"
   sodipodi:docname="logo-bus.svg"
   xmlns:inkscape="http://www.inkscape.org/namespaces/inkscape"
   xmlns:sodipodi="http://sodipodi.sourceforge.net/DTD/sodipodi-0.dtd"
   xmlns="http://www.w3.org/2000/svg"
   xmlns:svg="http://www.w3.org/2000/svg">
  <sodipodi:namedview
     id="namedview7"
     pagecolor="#ffffff"
     bordercolor="#666666"
     borderopacity="1.0"
     inkscape:pageshadow="2"
     inkscape:pageopacity="0.0"
     inkscape:pagecheckerboard="0"
     inkscape:document-units="mm"
     showgrid="false"
     showguides="true"
     inkscape:guide-bbox="true"
     inkscape:zoom="0.25"
     inkscape:cx="766"
     inkscape:cy="-190"
     inkscape:window-width="1362"
     inkscape:window-height="1040"
     inkscape:window-x="586"
     inkscape:window-y="60"
     inkscape:window-maximized="0"
     inkscape:current-layer="layer1"
     width="59mm">
    <sodipodi:guide
       position="-67.183497,269.92517"
       orientation="1,0"
       id="guide4127" />
    <sodipodi:guide
       position="-37.356345,211.26077"
       orientation="0,-1"
       id="guide4129" />
    <sodipodi:guide
       position="-39.753645,270.67397"
       orientation="0,-1"
       id="guide4131" />
    <sodipodi:guide
       position="-7.652246,211.86205"
       orientation="1,0"
       id="guide4133" />
    <sodipodi:guide
       position="-46.149121,225.13876"
       orientation="0,-1"
       id="guide5631" />
  </sodipodi:namedview>
  <defs
     id="defs2" />
  <g
     inkscape:label="Capa 1"
     inkscape:groupmode="layer"
     id="layer1">
    <path
       id="path960"
       style="fill:#000000;stroke-width:0.264583"
       d="m 0,0 v 29.681923 29.73128 H 59.531252 V 0 Z m 31.899864,9.4588633 c 6.305216,-0.0143 9.05572,0.31129 10.340971,1.1534207 1.364123,0.89381 2.843181,5.15367 3.535701,10.18439 0.719515,5.226759 0.757237,20.062729 0.05943,23.421309 -0.164909,0.79371 -0.38264,0.92027 -0.88315,1.03766 -0.597559,0.14016 -0.658169,0.29377 -0.731738,1.85157 -0.04412,0.93429 -0.191153,2.0005 -0.346749,2.18798 -0.176083,0.21217 -0.912796,0.34106 -1.951302,0.34106 -2.197535,0 -2.500108,-0.30673 -2.500108,-2.53576 v -1.56528 H 21.034378 l -0.0801,1.70946 c -0.04413,0.9403 -0.20769,1.86304 -0.363286,2.05052 -0.17621,0.21232 -0.913234,0.34106 -1.954919,0.34106 -2.088457,0 -2.49649,-0.44179 -2.49649,-2.70474 3e-6,-1.34311 -0.0631,-1.52859 -0.519863,-1.52859 -0.285922,0 -0.636464,-0.21839 -0.77928,-0.48524 -0.507511,-0.94829 -0.89421,-8.52617 -0.724504,-14.19914 0.256733,-8.582129 1.115838,-14.513979 2.585887,-17.856269 1.329034,-3.0216707 2.079591,-3.2280607 12.272121,-3.3770507 1.051912,-0.0154 2.025174,-0.0243 2.925919,-0.0264 z m -0.695048,2.1244207 c -4.40324,0.009 -9.442828,0.18937 -10.339937,0.4625 -1.045927,0.31845 -1.389965,0.63317 -1.66243,1.52291 -0.170336,0.55623 -0.139748,0.56631 0.827854,0.27698 1.159129,-0.34659 16.526362,-0.44412 19.586403,-0.12505 l 1.913061,0.19947 c 0,0 -0.185754,-0.40718 -0.278536,-0.61082 -0.43392,-0.95235 -1.086451,-1.21365 -3.840076,-1.53841 -1.151445,-0.13579 -3.564395,-0.19276 -6.206339,-0.18758 z m -3.920175,4.22662 c -4.128291,0.0347 -6.585958,0.27893 -8.146788,0.77721 -0.784966,0.25059 -0.856353,0.38029 -1.128098,2.04018 -0.720236,4.39942 -1.110753,13.595209 -0.65009,15.312759 0.17162,0.63987 1.634091,0.97827 6.102472,1.4118 5.500066,0.53364 18.620062,-0.17378 19.494933,-1.0511 0.682773,-0.68468 0.0654,-15.268719 -0.717269,-16.943659 -0.524751,-1.123 -2.141476,-1.36178 -10.241235,-1.51361 -1.775999,-0.0333 -3.337827,-0.0452 -4.713925,-0.0336 z m 1.269691,2.08256 c 0.42011,0 0.760677,0.34056 0.760677,0.76067 0,0.42011 -0.340567,0.76068 -0.760677,0.76068 -0.420111,0 -0.760677,-0.34057 -0.760677,-0.76068 0,-0.42011 0.340566,-0.76067 0.760677,-0.76067 z m 3.585826,0.0476 c 0.356838,0.0699 0.614299,0.38258 0.614434,0.74621 -1.43e-4,0.36896 -0.265044,0.68462 -0.628385,0.74879 -0.04924,0.0163 -0.09794,0.0181 -0.147278,0.0114 -0.414046,-0.008 -0.74549,-0.34603 -0.745691,-0.76016 2.64e-4,-0.38947 0.301673,-0.67269 0.682127,-0.75602 0.09779,-0.0214 0.155052,7.9e-4 0.224793,0.01 0,0 -3e-6,0 0,0 z m -7.091555,0.0186 c 0.42011,0 0.760677,0.34057 0.760677,0.76068 0,0.42011 -0.340567,0.76067 -0.760677,0.76067 -0.420111,0 -0.760678,-0.34056 -0.760678,-0.76067 0,-0.42011 0.340567,-0.76068 0.760678,-0.76068 z m 13.923697,0 c 0.420111,0 0.760677,0.34057 0.760677,0.76068 0,0.42011 -0.340566,0.76067 -0.760677,0.76067 -0.42011,0 -0.760677,-0.34056 -0.760677,-0.76067 0,-0.42011 0.340567,-0.76068 0.760677,-0.76068 z m -17.396354,0.0331 c 0.420111,0 0.760677,0.34057 0.760677,0.76068 0,0.42011 -0.340566,0.76068 -0.760677,0.76068 -0.42011,0 -0.760677,-0.34057 -0.760677,-0.76068 0,-0.42011 0.340567,-0.76068 0.760677,-0.76068 z m 13.989844,0 c 0.420111,0 0.760677,0.34057 0.760677,0.76068 0,0.42011 -0.340566,0.76068 -0.760677,0.76068 -0.420111,0 -0.760677,-0.34057 -0.760677,-0.76068 0,-0.42011 0.340566,-0.76068 0.760677,-0.76068 z m -3.538802,2.8112 c 0.420111,0 0.760677,0.34057 0.760677,0.76068 0,0.42011 -0.340566,0.76068 -0.760677,0.76068 -0.420111,0 -0.760677,-0.34057 -0.760677,-0.76068 0,-0.42011 0.340566,-0.76068 0.760677,-0.76068 z m -10.451042,0.0331 c 0.420111,0 0.760677,0.34057 0.760677,0.76068 0,0.42011 -0.340566,0.76068 -0.760677,0.76068 -0.42011,0 -0.760677,-0.34057 -0.760677,-0.76068 0,-0.42011 0.340567,-0.76068 0.760677,-0.76068 z m 17.363281,0 c 0.420111,0 0.760677,0.34057 0.760677,0.76068 0,0.42011 -0.340566,0.76068 -0.760677,0.76068 -0.42011,0 -0.760677,-0.34057 -0.760677,-0.76068 0,-0.42011 0.340567,-0.76068 0.760677,-0.76068 z m -10.451041,0.0331 c 0.420111,0 0.760677,0.34056 0.760677,0.76067 0,0.42012 -0.340566,0.76068 -0.760677,0.76068 -0.420111,0 -0.760677,-0.34056 -0.760677,-0.76068 0,-0.42011 0.340566,-0.76067 0.760677,-0.76067 z m -3.439583,0.0661 c 0.42011,0 0.760677,0.34057 0.760677,0.76068 0,0.42011 -0.340567,0.76068 -0.760677,0.76068 -0.420111,0 -0.760678,-0.34057 -0.760678,-0.76068 1.17e-4,-0.12455 0.03082,-0.24717 0.0894,-0.35708 0.02064,-0.055 0.05308,-0.0988 0.09354,-0.13643 0.144272,-0.16922 0.355367,-0.26684 0.577742,-0.26717 z m 10.417968,0.0331 c 0.420111,0 0.760677,0.34056 0.760677,0.76067 0,0.42011 -0.340566,0.76068 -0.760677,0.76068 -0.420111,0 -0.760677,-0.34057 -0.760677,-0.76068 0,-0.42011 0.340566,-0.76067 0.760677,-0.76067 z M 19.510955,38.120803 c -1.636103,0.002 -2.75664,2.12827 -1.472776,3.49487 1.229262,1.30849 3.499011,0.45671 3.499011,-1.31309 0,-1.0233 -0.441724,-1.71833 -1.299146,-2.04432 -0.249251,-0.0948 -0.493358,-0.13778 -0.727089,-0.13746 z m 21.631755,0.0326 c -0.71957,0 -1.130999,0.16884 -1.489314,0.61134 -0.65714,0.81153 -0.640297,2.25978 0.0341,2.93418 1.236215,1.23622 3.439584,0.29075 3.439584,-1.47587 0,-1.25784 -0.778356,-2.06965 -1.984375,-2.06965 z"
       sodipodi:nodetypes="ccccccsssssssscccssssssssssssssssssssssssssssscssscscccsscssssssssssssssssssssscssscssscssscssscsssssssssssssssssssssssss" />
  </g>
</svg>
